inDegrees=no
num_controls=7
num_derivatives=13
num_iterations=70
num_multipliers=7
num_parameters=0
num_slacks=7
num_states=26
objective=0.333912
objective_accelerations=0.037153
objective_balance=0.001321
objective_effort=0.027266
objective_height=0.266697
objective_ligament=0.001475
solver_duration=721.582423
status=Solve_Succeeded
success=true
DataType=double
version=3
OpenSimVersion=4.5
endheader
time	/jointset/ground_pelvis/pelvis_tilt/value	/jointset/ground_pelvis/pelvis_tx/value	/jointset/ground_pelvis/pelvis_ty/value	/jointset/hip_r/hip_flexion_r/value	/jointset/hip_r/hip_adduction_r/value	/jointset/hip_r/hip_rotation_r/value	/jointset/back/lumbar_extension/value	/jointset/patellofemoral_r/patellar_flexion_r/value	/jointset/knee_r/knee_flexion_r/value	/jointset/knee_r/knee_adduction_r/value	/jointset/knee_r/knee_rotation_r/value	/jointset/ankle_r/ankle_angle_r/value	/jointset/subtalar_r/subtalar_angle_r/value	/jointset/ground_pelvis/pelvis_tilt/speed	/jointset/ground_pelvis/pelvis_tx/speed	/jointset/ground_pelvis/pelvis_ty/speed	/jointset/hip_r/hip_flexion_r/speed	/jointset/hip_r/hip_adduction_r/speed	/jointset/hip_r/hip_rotation_r/speed	/jointset/back/lumbar_extension/speed	/jointset/patellofemoral_r/patellar_flexion_r/speed	/jointset/knee_r/knee_flexion_r/speed	/jointset/knee_r/knee_adduction_r/speed	/jointset/knee_r/knee_rotation_r/speed	/jointset/ankle_r/ankle_angle_r/speed	/jointset/subtalar_r/subtalar_angle_r/speed	/forceset/tau_hip_flexion_r	/forceset/tau_hip_adduction_r	/forceset/tau_hip_rotation_r	/forceset/tau_knee_flexion_r	/forceset/tau_ankle_angle_r	/forceset/tau_subtalar_angle_r	/forceset/tau_lumbar_extension	lambda_cid13_p0	lambda_cid14_p0	lambda_cid14_p1	lambda_cid14_p2	lambda_cid14_p3	lambda_cid14_p4	lambda_cid14_p5	/jointset/ground_pelvis/pelvis_tilt/accel	/jointset/ground_pelvis/pelvis_tx/accel	/jointset/ground_pelvis/pelvis_ty/accel	/jointset/hip_r/hip_flexion_r/accel	/jointset/hip_r/hip_adduction_r/accel	/jointset/hip_r/hip_rotation_r/accel	/jointset/back/lumbar_extension/accel	/jointset/patellofemoral_r/patellar_flexion_r/accel	/jointset/knee_r/knee_flexion_r/accel	/jointset/knee_r/knee_adduction_r/accel	/jointset/knee_r/knee_rotation_r/accel	/jointset/ankle_r/ankle_angle_r/accel	/jointset/subtalar_r/subtalar_angle_r/accel	gamma_cid13_p0	gamma_cid14_p0	gamma_cid14_p1	gamma_cid14_p2	gamma_cid14_p3	gamma_cid14_p4	gamma_cid14_p5
0	-0.01118643934316171	0.1338938081485115	0.9325675004293126	0.1934211968871041	-0.2371780320944535	-0.2338309476823428	-0.2903787966825928	0.2311786273363422	0.2311786273363406	0.1526652206798184	0.1711486900880695	0.089344008118978	0.05261472695939809	0	0	0	0	0	0	0	0	0	0	0	0	0	0.1033624388964232	-0.0366639832757065	0.006715516809931427	-0.2399687178798038	0.1167155621587453	-0.1283496734565561	-0.025527307643962	-29.93159890997524	-10.78570177129198	-52.53496869327581	2.976823541687772	4.648154294458831	-611.7533519742052	16.34089262897928	-2.077255917335268	-1.91756570202259	-0.8263172976088339	10.31917636367383	0.353716345847887	2.259952547179679	-6.184802281187689	10.10618430160526	10.10618430160526	-3.320570374649397	0.2981917982354861	2.726781775815321	1.171813414297828	7.514732026216424e-08	5.613209366046881e-08	-4.748219203025544e-07	3.675341599298186e-07	1.133160187436298e-08	2.228866317459796e-07	-4.312201711938024e-07
0.01	-0.01128488978639625	0.1338002695986213	0.93252729219653	0.1939242459625547	-0.2371582540242293	-0.2337168487114399	-0.290690613600155	0.2316753571959127	0.2316753571959112	0.1524971098426601	0.1711588944808242	0.08948024763602594	0.05267586036986524	-0.01967378215469603	-0.01849424608480248	-0.008029185422393819	0.1000850527255514	0.003879969220651352	0.02272511248125017	-0.06206157652702439	0.09893654058457806	0.09893654058457838	-0.03334845743236818	0.002045936828821227	0.02728366892528562	0.01214685224523175	0.1058857951156544	-0.05813198267023197	0.006144066455625981	-0.2495563973661656	0.1284809528517723	-0.1149937527951687	-0.02624346815028553	-29.93627821113826	-6.318797507479504	-45.88054505999917	1.833884229156425	-0.5063851926910714	-612.9572564539558	31.21136827960416	-1.909993988042709	-1.783332211413853	-0.7893054171081266	9.774458112983888	0.3937815350514493	2.264662335865549	-6.171564290602944	9.725959208122232	9.725959208122299	-3.300967993117968	0.15862586268066	2.734535552298022	1.224114993576385	9.057683765072324e-08	4.771415681638589e-08	-5.584076962997345e-07	4.575867289443253e-07	3.059863544568098e-08	1.252409556400596e-07	-5.450342846374286e-07
0.02	-0.0115795889758809	0.1335281929579422	0.9324071748590126	0.1954124032424606	-0.2371019473968224	-0.2333783242682701	-0.2916139920734161	0.2331491665155697	0.2331491665155701	0.1520037175180244	0.1711897244893835	0.08989039906261118	0.05285606107557279	-0.0392497492496166	-0.0357076181577767	-0.01598182094697338	0.1970216408906335	0.007305711436413995	0.04488509445321359	-0.122312311139774	0.1954158920186819	0.1954158920186822	-0.06505629748823033	0.004125123156649516	0.05478238190708495	0.02381345904808328	0.1084091513348997	-0.0795999820647688	0.005572616101389796	-0.2591440768525428	0.1402463435447886	-0.1016378321337989	-0.02695962865658601	-29.94994393514657	-1.771907539752041	-39.23722287866021	0.7213944310446236	-5.573063578110125	-612.8275941929725	45.72857078026971	-2.057692905380153	-1.661390899656943	-0.8110073180459805	9.689483451579965	0.2628709448701417	2.146926445322324	-5.822633898332711	9.614746471510431	9.61474647151036	-2.992446899348193	0.3048416980369013	2.769790587118063	1.075764325821785	1.060063550392822e-07	3.929621997230296e-08	-6.419934722969146e-07	5.47639297958832e-07	4.986566901699897e-08	2.759527953413962e-08	-6.588483980810549e-07
0.03	-0.01206932541399114	0.133089086105461	0.9322077387710751	0.1978552188450462	-0.2370131923389921	-0.2328228812490611	-0.2931284901519354	0.2355748203638948	0.2355748203638939	0.1512006264045737	0.1712425740410509	0.090574640969277	0.05315061149805798	-0.05861749355293829	-0.05202974350133618	-0.02390296543199008	0.2910776414768858	0.0104390068231764	0.06610341432617435	-0.180096753785652	0.2892168494184977	0.2892168494184978	-0.09539912605615729	0.006364358893349689	0.08191375548092789	0.03505335346922733	0.1017775862554504	-0.0812423710333795	0.006395744019144815	-0.2518893686162116	0.1296009884621937	-0.09517527863712667	-0.02150293890203419	-29.97210929782635	-4.867142533595285	-36.8185375576461	0.1599399173473939	-4.234800797687003	-613.373615227567	49.52290606963737	-1.864302690270736	-1.605011975149386	-0.7822982079203875	9.194088014403377	0.3376244728772796	2.094376639681322	-5.682766830892185	9.188044876524215	9.188044876524259	-3.030826460296535	0.1715055663892865	2.661984500689575	1.141575374831171	1.224437570564919e-07	3.9516564240937e-08	-7.20468108937393e-07	6.315061292857928e-07	6.164982936286759e-08	-4.208317860383431e-08	-7.54214050982868e-07
0.04	-0.01275033679462948	0.1324892802748555	0.9319291651994491	0.2012246803839419	-0.2368932911998332	-0.2320582366548425	-0.2952061161335505	0.2389235386866745	0.2389235386866744	0.1500989818804809	0.1713154241610767	0.09152563136331569	0.05355625553966868	-0.07750473775475299	-0.06784741378263807	-0.03180931768469553	0.3823508281533625	0.01353492770185612	0.0867254094550696	-0.2349378917586037	0.3800287869105959	0.380028786910596	-0.124766979615347	0.008125236826156968	0.1081320793816574	0.04603218287318877	0.09514602117597748	-0.08288476000198589	0.007218871936937957	-0.2446346603798978	0.118955633379594	-0.08871272514045316	-0.01604624914750068	-30.0015603498656	-7.888624561743591	-34.40707355478407	-0.3773639726974877	-2.826214541860589	-612.7092820304189	52.99607606367844	-1.961592885078738	-1.560499887205419	-0.808048871583729	9.132920669624863	0.2553960432536025	2.027661496509216	-5.233972963747441	9.016942489966908	9.016942489966862	-2.797451897600754	0.2091701372583241	2.587180652495384	1.023551322385262	1.389019402000656e-07	3.991501739849305e-08	-7.988373612612383e-07	7.152454196295053e-07	7.327970366285066e-08	-1.111849930723661e-07	-8.49199323254953e-07
